<?xml version="1.0"?>
<svg xmlns="http://www.w3.org/2000/svg" xmlns:xlink="http://www.w3.org/1999/xlink" version="1.1" id="Layer_1" x="0px" y="0px" viewBox="0 0 512 512" style="enable-background:new 0 0 512 512;" xml:space="preserve" width="512px" height="512px" class=""><g><g>
	<g>
		<path d="M437.019,74.981C388.667,26.628,324.38,0,256,0S123.332,26.628,74.981,74.981C26.63,123.333,0,187.62,0,256    s26.628,132.668,74.981,181.019C123.333,485.371,187.62,512,256,512s132.668-26.628,181.019-74.981    C485.37,388.667,512,324.38,512,256S485.37,123.332,437.019,74.981z M256,478.936C133.073,478.936,33.064,378.927,33.064,256    S133.073,33.064,256,33.064S478.936,133.073,478.936,256S378.927,478.936,256,478.936z" data-original="#000000" class="active-path" data-old_color="#000000" fill="#C2C2C2"/>
	</g>
</g><g>
	<g>
		<path d="M256,59.871C147.854,59.871,59.871,147.854,59.871,256S147.854,452.129,256,452.129S452.129,364.146,452.129,256    S364.146,59.871,256,59.871z M256,419.065c-89.914,0-163.066-73.151-163.066-163.066S166.086,92.934,256,92.934    S419.066,166.086,419.066,256S345.914,419.065,256,419.065z" data-original="#000000" class="active-path" data-old_color="#000000" fill="#C2C2C2"/>
	</g>
</g><g>
	<g>
		<path d="M346.373,266.739H261.51v-85.745c0-9.13-7.402-16.532-16.532-16.532c-9.13,0-16.532,7.402-16.532,16.532v102.277    c0,9.13,7.402,16.532,16.532,16.532h101.395c9.13,0,16.532-7.402,16.532-16.532C362.905,274.141,355.504,266.739,346.373,266.739z    " data-original="#000000" class="active-path" data-old_color="#000000" fill="#C2C2C2"/>
	</g>
</g></g> </svg>
